<svg width="90" height="94" viewBox="0 0 90 94" fill="none" xmlns="http://www.w3.org/2000/svg">
<path d="M86.16 29.559C85.9295 29.2309 85.5701 29.0082 85.1717 28.9379C84.7615 28.8793 84.3631 28.977 84.0428 29.2192C83.242 29.8207 82.5311 30.4497 81.8826 31.0786C81.2224 29.5903 80.492 28.1567 79.7029 26.7895C82.4021 19.309 79.8513 13.4695 72.2615 9.82846C71.8904 9.64877 71.4724 9.62924 71.0896 9.77768C70.7107 9.9183 70.3982 10.2074 70.238 10.5785C69.7771 11.6097 69.4177 12.6176 69.1482 13.5902C68.2498 12.7308 67.3865 11.9496 66.5779 11.2386C66.5779 11.1096 66.5584 10.9886 66.5271 10.8675C63.9763 2.24637 58.0388 -1.09353 49.3471 1.19557C48.9565 1.29713 48.6167 1.55495 48.4253 1.90651C48.226 2.25807 48.1753 2.67604 48.2963 3.06671C50.3275 9.92611 54.4955 13.4377 60.4873 13.4377C61.6592 13.4377 62.8857 13.3088 64.1865 13.0393C65.5146 14.1487 67.0381 15.5002 68.6084 17.0705C68.4092 22.1916 71.249 26.2814 77.0693 29.0705C77.2686 29.172 77.499 29.2189 77.7178 29.2189C77.7568 29.2189 77.7881 29.1994 77.8272 29.1994C78.5654 30.5783 79.2491 32.008 79.8272 33.5002C76.7374 38.0197 77.128 43.1916 81.0264 48.6992C81.2256 48.9882 81.5381 49.1875 81.8662 49.2773C81.6865 50.6992 81.3974 52.1367 80.9951 53.6054C75.9443 55.207 73.0459 59.3749 72.5459 65.9574C72.5147 66.3558 72.6475 66.7582 72.917 67.0668C73.1787 67.3559 73.5264 67.5277 73.9053 67.5551C72.9756 68.7934 72.0147 69.934 71.0459 70.9848C67.1865 71.1567 63.6943 73.3637 60.7259 77.5942C60.4954 77.9223 60.4056 78.3325 60.4759 78.7348C60.4954 78.8559 60.5345 78.9652 60.5853 79.0746C58.4251 80.2152 56.3548 81.0355 54.4642 81.6254C52.2533 81.4535 49.8744 81.9262 47.3548 83.0746C46.0462 83.1957 45.2259 83.1762 45.0736 83.1645H45.0228H44.9642C44.804 83.1645 43.9837 83.1957 42.6751 83.0746C40.1556 81.934 37.7845 81.4652 35.5735 81.6332C33.6751 81.0434 31.6047 80.2113 29.4446 79.0824C29.4954 78.973 29.5344 78.8637 29.554 78.7426C29.6321 78.3441 29.5422 77.934 29.304 77.602C26.3235 73.3637 22.8352 71.1606 18.984 70.9809C18.0152 69.9301 17.0543 68.7895 16.1129 67.5512C16.4918 67.5199 16.8511 67.3402 17.1011 67.0629C17.3707 66.7621 17.4996 66.3637 17.4722 65.9535C16.9722 59.3754 14.0738 55.2035 9.02304 53.6015C8.6246 52.1327 8.33163 50.6913 8.15195 49.2734C8.49179 49.1836 8.79257 48.9843 8.99179 48.6953C12.8902 43.1953 13.273 38.0233 10.191 33.4963C10.7691 32.008 11.4527 30.5666 12.191 29.1955C12.2301 29.1955 12.2613 29.215 12.3004 29.215C12.5191 29.215 12.7418 29.1642 12.9488 29.0666C18.7691 26.2775 21.609 22.1877 21.4097 17.0666C22.98 15.4963 24.4878 14.1447 25.8316 13.0354C27.1324 13.3049 28.3628 13.4338 29.5308 13.4338C35.5308 13.4338 39.7028 9.9143 41.7218 3.0628C41.8429 2.67218 41.7921 2.25421 41.5929 1.9026C41.3937 1.55104 41.0616 1.29322 40.671 1.19166C31.9718 -1.09744 26.042 2.24246 23.491 10.8636C23.452 10.9846 23.4402 11.1136 23.4402 11.2346C22.6316 11.9339 21.7605 12.7229 20.8699 13.5862C20.6004 12.6175 20.241 11.6057 19.7801 10.5745C19.62 10.2035 19.3114 9.91439 18.9286 9.77377C18.5497 9.63314 18.1278 9.65268 17.7567 9.82455C10.1669 13.4651 7.61568 19.305 10.3153 26.7855C9.52622 28.1566 8.79577 29.5863 8.13557 31.0746C7.48713 30.434 6.77617 29.813 5.97537 29.2153C5.65506 28.977 5.24491 28.8637 4.84648 28.934C4.44804 28.9926 4.08476 29.2152 3.8582 29.5551C-0.841005 36.184 -0.423005 42.3361 5.01839 47.4461C5.11995 49.2469 5.37777 51.075 5.79964 52.9578C4.83089 52.8679 3.81135 52.8367 2.72935 52.8875C2.31919 52.907 1.94029 53.0867 1.67855 53.3875C1.40902 53.6883 1.2801 54.0867 1.30745 54.4969C1.88557 62.1258 5.67856 66.5359 12.3385 67.4189C13.3189 68.8603 14.3268 70.1806 15.3502 71.3994C13.6002 71.8603 11.7994 72.7002 9.93996 73.9306C9.60012 74.1493 9.36965 74.5009 9.29152 74.8993C9.21339 75.2978 9.30323 75.7079 9.54152 76.0399C12.6431 80.4618 16.3032 82.6805 20.3505 82.6805C22.3817 82.6805 24.4989 82.1219 26.7099 81.0008C28.1513 81.829 29.5615 82.5203 30.9287 83.1024C28.8193 84.3407 26.9287 86.3329 25.2998 89.0907C25.0889 89.4423 25.0381 89.8603 25.1397 90.2509C25.249 90.6416 25.5107 90.9697 25.8584 91.1728C28.6592 92.7119 31.2881 93.4814 33.7373 93.4814C38.0967 93.4814 41.8271 91.0322 44.7573 86.1806H45.0268H45.2964C48.2261 91.0322 51.9566 93.4814 56.3164 93.4814C58.7578 93.4814 61.3945 92.7119 64.1953 91.1728C64.5546 90.9736 64.8164 90.6416 64.914 90.2509C65.0234 89.8603 64.9648 89.4423 64.7539 89.0907C63.125 86.329 61.2344 84.3407 59.125 83.1024C60.4961 82.5243 61.9062 81.8212 63.3359 81.0008C65.5468 82.1219 67.664 82.6805 69.6953 82.6805C73.7461 82.6805 77.3945 80.4617 80.5043 76.0399C80.7347 75.7118 80.8246 75.3017 80.7543 74.8993C80.6761 74.5009 80.4457 74.1493 80.1058 73.9306C78.2464 72.7118 76.4456 71.872 74.6956 71.3994C75.7268 70.1689 76.7347 68.8603 77.7073 67.4189C84.3675 66.5283 88.1683 62.1298 88.7383 54.4969C88.7696 54.0984 88.6368 53.6961 88.3672 53.3875C88.0977 53.0867 87.7188 52.8992 87.3164 52.8875C86.2383 52.8367 85.2148 52.8679 84.2461 52.9578C84.6758 51.0789 84.9258 49.239 85.0274 47.4461C90.4571 42.325 90.8868 36.1841 86.1876 29.5551L86.16 29.559ZM51.68 3.762C57.3909 2.7112 61.0706 4.7932 63.141 10.2112C57.4418 11.2503 53.7504 9.18 51.68 3.762ZM76.93 25.641C71.9105 22.7426 70.4417 18.7699 72.3792 13.301C77.3987 16.1994 78.8675 20.1721 76.93 25.641ZM38.321 3.762C36.2624 9.1839 32.5593 11.262 26.86 10.2112C28.9186 4.7893 32.61 2.7229 38.321 3.762ZM17.61 13.3011C19.5514 18.762 18.0787 22.7425 13.0592 25.6411C11.1178 20.1802 12.5904 16.1997 17.61 13.3011ZM5.39895 32.6411C9.75055 36.4692 10.399 40.6606 7.41845 45.6291C3.06685 41.801 2.41845 37.6096 5.39895 32.6411ZM4.44973 55.8791C10.2388 56.0588 13.4106 58.8674 14.2895 64.5979C8.50043 64.4182 5.32863 61.6096 4.44973 55.8791ZM12.938 75.6091C18.0083 72.8005 22.1685 73.5896 25.86 78.0583C20.7897 80.8669 16.6295 80.0778 12.938 75.6091ZM28.719 89.2811C32.0393 84.5311 36.1292 83.41 41.399 85.8202C38.0787 90.5702 33.9888 91.6796 28.719 89.2811ZM61.27 89.2811C56.0005 91.6913 51.9106 90.5702 48.59 85.8202C53.8712 83.4218 57.9494 84.5311 61.27 89.2811ZM77.051 75.6091C73.3596 80.0896 69.2112 80.8786 64.129 78.0583C67.8204 73.5895 71.9688 72.7888 77.051 75.6091ZM85.5393 55.8791C84.6604 61.6096 81.4885 64.4182 75.6995 64.5979C76.5784 58.8674 79.7503 56.0588 85.5393 55.8791ZM82.5705 45.6291C79.59 40.6603 80.2424 36.4689 84.59 32.6411C87.5705 37.6099 86.9181 41.8013 82.5705 45.6291Z" fill="black"/>
<path d="M62.5842 24.7838H51.8574C50.5249 24.7838 49.4422 25.8669 49.4422 27.1956C49.4422 28.2452 50.1205 29.1311 51.0598 29.4623V44.6555H26.7265C25.2225 44.6555 24 45.8763 24 47.3763C24 48.5226 24.7156 49.5015 25.722 49.9016C26.1804 55.2798 30.4836 59.7294 36.2237 61.1382C35.6459 62.6083 34.3172 65.2807 32.5765 66.3063C32.4442 66.3901 31.2888 67.1624 31.4472 68.4093C31.6708 70.1511 33.3965 70.1995 34.0674 70.2162L55.8645 70.2032C56.6212 70.0692 58.032 69.3918 57.9519 67.7858C57.8885 66.5408 57.95 59.795 57.9538 59.268C57.9965 58.814 58.6097 52.818 61.2132 50.101H61.9418C62.9668 50.101 63.8036 49.2672 63.8036 48.2419V29.2674C64.5154 28.8487 65 28.082 65 27.1961C65 25.8655 63.9149 24.7838 62.5842 24.7838ZM25.5952 47.3761C25.5952 46.7546 26.1021 46.2484 26.7246 46.2484H51.0599L51.1045 48.5504L26.7283 48.5058C26.1021 48.5058 25.5952 47.9996 25.5952 47.3761ZM27.3433 50.0988H52.8599C52.1908 55.6612 46.725 60.0138 40.1016 60.0138C33.4782 60.0138 28.0103 55.6609 27.3433 50.0988ZM49.5985 68.6211H34.0893C33.0793 68.5932 33.0569 68.4052 33.0308 68.2043C33.0065 68.0181 33.288 67.7446 33.4091 67.6645C35.8672 66.2166 37.3693 62.6289 37.811 61.445C38.5564 61.5492 39.3206 61.6069 40.0995 61.6069C43.7336 61.6069 47.0583 60.4178 49.5964 58.4637L49.5985 68.6211ZM56.3597 59.1601L56.356 59.2196C56.3523 59.5174 56.2871 66.5277 56.356 67.8641C56.3821 68.3852 55.8417 68.5713 55.6386 68.6215H51.1939V57.0275C53.0089 55.1107 54.1905 52.7193 54.4627 50.0972H59.1794C56.8592 53.5326 56.3821 58.9071 56.3597 59.1601ZM62.206 48.2398C62.206 48.385 62.083 48.5059 61.9395 48.5059H57.4305H52.9216C52.7762 48.5059 52.6551 48.385 52.6551 48.2398V29.6079H62.2064L62.206 48.2398ZM62.5843 28.0147H51.8575C51.4046 28.0147 51.0375 27.6481 51.0375 27.1959C51.0375 26.7455 51.4046 26.377 51.8575 26.377H62.5843C63.0372 26.377 63.4043 26.7455 63.4043 27.1959C63.4043 27.6462 63.0353 28.0147 62.5843 28.0147Z" fill="black" stroke="black" stroke-linecap="round"/>
</svg>
