<svg width="70" height="60" viewBox="0 0 70 60" fill="none" xmlns="http://www.w3.org/2000/svg">
<path d="M36.5001 1.53101V58.472C36.5001 59.3001 35.8282 59.972 35.0001 59.972C34.1719 59.972 33.5001 59.3001 33.5001 58.472V1.53101C33.5001 0.702886 34.1719 0.0310059 35.0001 0.0310059C35.8282 0.0310059 36.5001 0.702886 36.5001 1.53101ZM50.3791 8.82011C50.3791 4.74981 53.6682 1.42951 57.7189 1.42951C61.7696 1.42951 65.0587 4.74981 65.0587 8.82011C65.0587 12.8904 61.7696 16.2107 57.7189 16.2107C53.6682 16.2107 50.3791 12.9021 50.3791 8.82011ZM53.3791 8.82011C53.3791 11.242 55.3283 13.2107 57.7189 13.2107C60.1095 13.2107 62.0587 11.2419 62.0587 8.82011C62.0587 6.39821 60.1095 4.42951 57.7189 4.42951C55.3283 4.42951 53.3791 6.39831 53.3791 8.82011ZM69.7891 24.4921V40.4721C69.7891 41.3002 69.1172 41.9721 68.2891 41.9721H64.668V56.2731C64.668 57.1012 63.9961 57.7731 63.168 57.7731H52.246C51.4178 57.7731 50.746 57.1012 50.746 56.2731V41.9721H47.1249C46.2967 41.9721 45.6249 41.3002 45.6249 40.4721V24.4921C45.6249 20.9218 48.5233 18.0233 52.0937 18.0233H63.3127C66.883 18.0233 69.7815 20.9217 69.7815 24.4921H69.7891ZM66.7891 24.4921C66.7891 22.5819 65.2305 21.0233 63.3203 21.0233H52.1013C50.1911 21.0233 48.6325 22.5819 48.6325 24.4921V38.9721H52.2536C53.0817 38.9721 53.7536 39.644 53.7536 40.4721V54.7731H61.6755V40.4721C61.6755 39.644 62.3473 38.9721 63.1755 38.9721H66.7966V24.4921H66.7891ZM5.94906 8.82011C5.94906 4.74981 9.23816 1.42951 13.2889 1.42951C17.3397 1.42951 20.6287 4.74981 20.6287 8.82011C20.6287 12.8904 17.3396 16.2107 13.2889 16.2107C9.23806 16.2107 5.94906 12.9021 5.94906 8.82011ZM8.94906 8.82011C8.94906 11.242 10.8983 13.2107 13.2889 13.2107C15.6795 13.2107 17.6287 11.2419 17.6287 8.82011C17.6287 6.39821 15.6795 4.42951 13.2889 4.42951C10.8983 4.42951 8.94906 6.39831 8.94906 8.82011ZM26.3401 40.0901C26.4494 40.5393 26.3596 41.0198 26.0705 41.3792C25.7815 41.7386 25.3518 41.9573 24.8908 41.9573H18.7424L17.7424 57.1563C17.6916 57.9454 17.0315 58.5547 16.2424 58.5547H9.25413C8.46507 58.5547 7.81273 57.9453 7.75413 57.1563L6.75413 41.9573H1.69553C1.23459 41.9573 0.797087 41.7464 0.515826 41.3792C0.234576 41.0081 0.136916 40.5394 0.246296 40.0901L4.3244 24.1101C5.4025 20.2195 7.7463 18.0085 10.7463 18.0085H15.8479C18.0588 18.0085 20.969 19.0671 22.2698 24.0983L26.3479 40.0783L26.3401 40.0901ZM22.9612 38.9612L19.3596 24.8522C18.4885 21.4538 17.0198 21.0124 15.8479 21.0124H10.7463C8.53536 21.0124 7.54706 23.7233 7.22676 24.8835L3.63696 38.9615H8.16816C8.95722 38.9615 9.60956 39.5709 9.66816 40.3599L10.6682 55.5589H14.8479L15.8479 40.3599C15.8986 39.5708 16.5588 38.9615 17.3479 38.9615H22.969L22.9612 38.9612Z" fill="black"/>
</svg>
